<?xml version="1.0" encoding="utf-8"?>
<!-- Generator: Adobe Illustrator 24.3.0, SVG Export Plug-In . SVG Version: 6.00 Build 0)  -->
<svg version="1.1" xmlns="http://www.w3.org/2000/svg" xmlns:xlink="http://www.w3.org/1999/xlink" x="0px" y="0px"
	 viewBox="0 0 719.21 130.88" style="enable-background:new 0 0 719.21 130.88;" xml:space="preserve">
<style type="text/css">
	.st0{fill:#131313;}
	.st1{fill:#A27DB8;}
	.st2{fill:#FFFFFF;}
	.st3{fill:#131313;stroke:#FFFFFF;stroke-width:2;stroke-miterlimit:10;}
	.st4{fill:none;stroke:#F1F2F2;stroke-miterlimit:10;}
	.st5{fill:none;stroke:#000000;stroke-width:20;stroke-miterlimit:10;}
	.st6{fill:#FFFFFF;stroke:#000000;stroke-miterlimit:10;}
	.st7{fill:none;stroke:#FFFFFF;stroke-width:0.8881;stroke-miterlimit:10;}
	.st8{fill:none;stroke:#FFFFFF;stroke-miterlimit:10;}
</style>
<g id="Layer_3">
</g>
<g id="grid">
</g>
<g id="art">
	<g>
		<g>
			<path class="st2" d="M183.54,100.57c-1.19-2.27,0-3.85,2.37-4.44l2.07-0.59c1.97-0.49,3.16,0.4,4.44,2.07
				c1.98,2.47,5.33,4.05,9.18,4.05c4.74,0,8.29-2.76,8.29-6.52c0-3.16-2.67-4.84-6.12-6.02l-6.62-2.27
				c-7.6-2.27-12.34-6.52-12.34-13.53c0-8.49,6.71-14.81,16.59-14.81c6.02,0,11.85,2.07,15.11,8.1c1.28,2.27,0.1,4.05-2.27,4.54
				l-1.88,0.4c-2.07,0.59-3.26-0.3-4.64-2.07c-1.68-1.97-3.85-2.57-6.02-2.57c-4.34,0-7.11,2.67-7.11,6.12
				c0,3.16,2.86,4.84,5.73,5.73l7.11,2.37c9.48,2.96,12.05,8.79,12.05,14.12c0,9.48-8.29,14.91-17.97,14.91
				C193.91,110.15,186.9,106.89,183.54,100.57z"/>
			<path class="st2" d="M230.14,93.36V67.49h-6.02c-1.28,0-1.97-0.79-1.97-2.07v-3.85c0-1.28,0.69-1.97,1.97-1.97h6.22l1.78-11.35
				c0.3-1.88,1.38-2.86,3.16-2.86h2.07c1.88,0,2.96,1.18,2.96,3.06v11.16h13.53c1.28,0,1.97,0.69,1.97,1.97v3.85
				c0,1.28-0.69,2.07-1.97,2.07h-13.53v26.46c0,5.33,2.57,7.41,5.73,7.41c3.06,0,5.83-1.78,5.83-5.33c0-0.39,0-1.09-0.2-1.88
				c-0.2-1.38,0.39-2.27,1.78-2.27h4.54c1.18,0,2.07,0.49,2.27,1.78c0.4,1.68,0.4,3.55,0.4,3.65c0,7.41-5.33,12.84-14.81,12.84
				C237.95,110.15,230.14,106.1,230.14,93.36z"/>
			<path class="st2" d="M264.9,84.28c0-14.22,9.78-25.77,24.49-25.77c6.62,0,13.03,2.27,17.67,8.89v-4.25
				c0-2.27,1.38-3.55,3.65-3.55h2.96c2.27,0,3.55,1.28,3.55,3.55v42.36c0,2.27-1.28,3.55-3.55,3.55h-2.96
				c-2.27,0-3.65-1.28-3.65-3.55v-4.25c-4.64,6.62-11.06,8.89-17.67,8.89C274.68,110.15,264.9,98.5,264.9,84.28z M307.26,84.28
				c-0.1-9.78-6.71-16.98-16.49-16.98c-9.97,0-15.7,7.8-15.7,16.98c0,9.28,5.73,16.98,15.7,16.98
				C300.55,101.26,307.16,94.05,307.26,84.28z"/>
			<path class="st2" d="M325.92,100.57c-1.19-2.27,0-3.85,2.37-4.44l2.07-0.59c1.97-0.49,3.16,0.4,4.44,2.07
				c1.98,2.47,5.33,4.05,9.18,4.05c4.74,0,8.29-2.76,8.29-6.52c0-3.16-2.67-4.84-6.12-6.02l-6.62-2.27
				c-7.6-2.27-12.34-6.52-12.34-13.53c0-8.49,6.71-14.81,16.59-14.81c6.02,0,11.85,2.07,15.11,8.1c1.28,2.27,0.1,4.05-2.27,4.54
				l-1.88,0.4c-2.07,0.59-3.26-0.3-4.64-2.07c-1.68-1.97-3.85-2.57-6.02-2.57c-4.34,0-7.11,2.67-7.11,6.12
				c0,3.16,2.86,4.84,5.73,5.73l7.11,2.37c9.48,2.96,12.05,8.79,12.05,14.12c0,9.48-8.29,14.91-17.97,14.91
				C336.29,110.15,329.28,106.89,325.92,100.57z"/>
			<path class="st2" d="M370.06,105.51V41.23c0-2.27,1.38-3.55,3.65-3.55h2.96c2.27,0,3.55,1.28,3.55,3.55v28.04
				c2.17-6.91,8.49-10.76,16.49-10.76c10.96,0,18.96,7.11,18.96,22.61v24.39c0,2.27-1.38,3.55-3.65,3.55h-2.96
				c-2.27,0-3.55-1.28-3.55-3.55V81.22c0-10.17-4.64-13.82-9.87-13.82c-5.13,0-15.4,3.46-15.4,18.46v19.65
				c0,2.27-1.28,3.55-3.55,3.55h-2.96C371.44,109.06,370.06,107.78,370.06,105.51z"/>
			<path class="st2" d="M423.18,84.28c0-14.22,9.78-25.77,24.49-25.77c6.62,0,13.03,2.27,17.67,8.89v-4.25
				c0-2.27,1.38-3.55,3.65-3.55h2.96c2.27,0,3.55,1.28,3.55,3.55v42.36c0,2.27-1.28,3.55-3.55,3.55H469c-2.27,0-3.65-1.28-3.65-3.55
				v-4.25c-4.64,6.62-11.06,8.89-17.67,8.89C432.96,110.15,423.18,98.5,423.18,84.28z M465.54,84.28
				c-0.1-9.78-6.71-16.98-16.49-16.98c-9.97,0-15.7,7.8-15.7,16.98c0,9.28,5.73,16.98,15.7,16.98
				C458.83,101.26,465.44,94.05,465.54,84.28z"/>
			<path class="st2" d="M495.66,101.26v4.25c0,2.27-1.28,3.55-3.55,3.55h-2.96c-2.27,0-3.65-1.28-3.65-3.55V41.23
				c0-2.27,1.38-3.55,3.65-3.55h2.96c2.27,0,3.55,1.28,3.55,3.55v26.17c4.64-6.62,11.16-8.89,17.77-8.89
				c14.71,0,24.49,11.55,24.49,25.77s-9.78,25.87-24.49,25.87C506.82,110.15,500.3,107.88,495.66,101.26z M527.75,84.28
				c0-9.18-5.73-16.98-15.8-16.98c-9.68,0-16.39,7.21-16.49,16.98c0.1,9.78,6.81,16.98,16.49,16.98
				C522.02,101.26,527.75,93.56,527.75,84.28z"/>
			<path class="st2" d="M546.61,105.51V41.23c0-2.27,1.38-3.55,3.65-3.55h2.96c2.27,0,3.55,1.28,3.55,3.55v64.28
				c0,2.27-1.28,3.55-3.55,3.55h-2.96C547.99,109.06,546.61,107.78,546.61,105.51z"/>
			<path class="st2" d="M565.37,84.48c0-14.42,11.26-25.97,26.66-25.97c12.44,0,23.8,7.41,25.18,23.2c0.3,2.37-1.09,3.65-3.46,3.65
				h-38.31c-0.3,9.18,7.31,15.9,18.07,15.9c4.84,0,9.18-1.28,13.43-4.15c1.88-1.18,3.46-1.09,5.04,0.49l0.69,0.79
				c1.58,1.68,1.58,3.75-0.69,5.63c-5.73,4.64-12.34,6.12-18.56,6.12C576.04,110.15,565.37,98.6,565.37,84.48z M607.14,77.86
				c-2.57-8.79-9.48-10.66-14.91-10.66c-5.73,0-12.84,2.27-15.9,10.66H607.14z"/>
			<path class="st2" d="M623.04,102.84c0-4.15,3.26-7.5,7.41-7.5c4.15,0,7.5,3.36,7.5,7.5c0,4.05-3.36,7.31-7.5,7.31
				C626.3,110.15,623.04,106.89,623.04,102.84z"/>
			<path class="st2" d="M646.34,43.89c0-3.85,2.86-6.91,6.81-6.91c4.05,0,7.01,3.06,7.01,6.91c0,3.75-3.06,6.71-7.01,6.71
				S646.34,47.65,646.34,43.89z M648.12,105.51V63.15c0-2.27,1.38-3.55,3.65-3.55h2.96c2.27,0,3.55,1.28,3.55,3.55v42.36
				c0,2.27-1.28,3.55-3.55,3.55h-2.96C649.5,109.06,648.12,107.78,648.12,105.51z"/>
			<path class="st2" d="M666.88,84.28c0-14.22,11.65-25.77,26.07-25.77c14.51,0,26.26,11.65,26.26,25.77
				c0,14.32-11.75,25.87-26.26,25.87C678.53,110.15,666.88,98.7,666.88,84.28z M709.04,84.38c0-9.38-7.11-16.98-16.09-16.98
				c-8.79,0-16,7.6-16,16.98c0,9.38,7.21,16.88,16,16.88C701.93,101.26,709.04,93.76,709.04,84.38z"/>
		</g>
		<g>
			<path class="st1" d="M34.11,77.73v33.94c-10.61,0-19.21,8.6-19.21,19.21h19.21h53.14C87.25,101.53,63.46,77.73,34.11,77.73z"/>
			<path class="st1" d="M87.25,43.63c12.05,0,21.81-9.77,21.81-21.81C109.06,9.77,99.3,0,87.25,0C63.16,0,43.63,19.53,43.63,43.63
				c0,24.09,19.53,43.63,43.63,43.63v43.63c24.09,0,43.63-19.53,43.63-43.63S111.34,43.63,87.25,43.63z"/>
			<path class="st1" d="M0,77.73h34.11V43.63C15.27,43.63,0,58.9,0,77.73z"/>
		</g>
	</g>
</g>
<g id="guides">
</g>
</svg>
