<?xml version="1.0" encoding="utf-8"?>
<!-- Generator: Adobe Illustrator 24.3.0, SVG Export Plug-In . SVG Version: 6.00 Build 0)  -->
<svg version="1.1" xmlns="http://www.w3.org/2000/svg" xmlns:xlink="http://www.w3.org/1999/xlink" x="0px" y="0px"
	 viewBox="0 0 216 216" style="enable-background:new 0 0 216 216;" xml:space="preserve">
<style type="text/css">
	.st0{fill:#131313;}
	.st1{fill:#A27DB8;}
	.st2{fill:#FFFFFF;}
	.st3{fill:#131313;stroke:#FFFFFF;stroke-width:2;stroke-miterlimit:10;}
	.st4{fill:none;stroke:#F1F2F2;stroke-miterlimit:10;}
	.st5{fill:none;stroke:#000000;stroke-width:20;stroke-miterlimit:10;}
	.st6{fill:#FFFFFF;stroke:#000000;stroke-miterlimit:10;}
	.st7{fill:none;stroke:#FFFFFF;stroke-width:0.8881;stroke-miterlimit:10;}
	.st8{fill:none;stroke:#FFFFFF;stroke-miterlimit:10;}
</style>
<g id="Layer_3">
</g>
<g id="grid">
</g>
<g id="art">
	<g>
		<path class="st1" d="M56.29,128.29v56.01c-17.51,0-31.7,14.19-31.7,31.7h31.7H144C144,167.56,104.73,128.29,56.29,128.29z"/>
		<path class="st1" d="M144,72c19.88,0,36-16.12,36-36c0-19.88-16.12-36-36-36c-39.76,0-72,32.24-72,72c0,39.76,32.24,72,72,72v72
			c39.76,0,72-32.24,72-72C216,104.24,183.76,72,144,72z"/>
		<path class="st1" d="M0,128.29h56.29V72C25.2,72,0,97.2,0,128.29z"/>
	</g>
</g>
<g id="guides">
</g>
</svg>
